<?xml version="1.0" encoding="UTF-8"?>
<svg version="1.1" xmlns="http://www.w3.org/2000/svg" width="292" height="263">
<path d="M0 0 C96.36 0 192.72 0 292 0 C292 86.79 292 173.58 292 263 C195.64 263 99.28 263 0 263 C0 176.21 0 89.42 0 0 Z " fill="#1571A8" transform="translate(0,0)"/>
<path d="M0 0 C9.9 0 19.8 0 30 0 C30 51.15 30 102.3 30 155 C20.43 155 10.86 155 1 155 C0 154 0 154 -0.09765625 151.71484375 C-0.08605469 150.79832031 -0.07445312 149.88179687 -0.0625 148.9375 C-0.05347656 148.01839844 -0.04445313 147.09929687 -0.03515625 146.15234375 C-0.02355469 145.44207031 -0.01195312 144.73179687 0 144 C-2.73116728 145.62242525 -5.43559383 147.27531275 -8.12109375 148.97265625 C-9.21550781 149.66230469 -10.30992187 150.35195312 -11.4375 151.0625 C-12.52933594 151.75472656 -13.62117188 152.44695312 -14.74609375 153.16015625 C-21.18986931 156.80363559 -26.56295861 157.33957073 -33.8125 157.3125 C-34.66392578 157.32861328 -35.51535156 157.34472656 -36.39257812 157.36132812 C-49.08486629 157.37099476 -62.02778107 151.52646715 -71.2421875 142.87109375 C-79 134.61333333 -79 134.61333333 -79 131 C-79.66 131 -80.32 131 -81 131 C-81.98188561 128.41767086 -82.96059589 125.83421317 -83.9375 123.25 C-84.21529297 122.52039063 -84.49308594 121.79078125 -84.77929688 121.0390625 C-85.04677734 120.33007812 -85.31425781 119.62109375 -85.58984375 118.890625 C-85.83597412 118.24125977 -86.08210449 117.59189453 -86.33569336 116.92285156 C-91.11977347 103.07521651 -89.28385104 84.99723115 -83 72 C-76.2253348 58.93817652 -65.13490593 47.79577165 -51 43 C-34.31217536 40.33803712 -20.40945167 40.6107259 -6 50 C-4.35 51.32 -2.7 52.64 -1 54 C-0.67 36.18 -0.34 18.36 0 0 Z " fill="#F8FBFC" transform="translate(230,54)"/>
<path d="M0 0 C32.01 0 64.02 0 97 0 C97 9.57 97 19.14 97 29 C75.22 29 53.44 29 31 29 C31 39.56 31 50.12 31 61 C50.47 61 69.94 61 90 61 C90 70.57 90 80.14 90 90 C70.53 90 51.06 90 31 90 C31 101.55 31 113.1 31 125 C53.11 125 75.22 125 98 125 C98 134.57 98 144.14 98 154 C65.66 154 33.32 154 0 154 C0 103.18 0 52.36 0 0 Z " fill="#F7FBFC" transform="translate(30,54)"/>
<path d="M0 0 C2.46163624 2.46163624 4.30931184 4.96457308 6 8 C6.53367188 8.89460937 7.06734375 9.78921875 7.6171875 10.7109375 C10.78200899 18.23856377 10.22596092 27.8640659 7.93359375 35.59765625 C4.04386797 43.98123415 -1.37824278 49.56019577 -9.75 53.4375 C-18.31481166 56.47196548 -26.63868675 55.93311752 -34.875 52.2109375 C-37.78209563 50.55432051 -39.84714449 48.54428378 -42 46 C-42.598125 45.443125 -43.19625 44.88625 -43.8125 44.3125 C-45 43 -45 43 -45 41 C-45.66 41 -46.32 41 -47 41 C-51.51529558 31.74184752 -51.31352152 21.40560454 -48.5625 11.5625 C-45.85413606 4.58727498 -41.34861771 -0.67676588 -34.71875 -4.21875 C-22.98721738 -8.44210174 -10.10056179 -7.35719933 0 0 Z " fill="#1470A7" transform="translate(221,129)"/>
<path d="M0 0 C21.78 0 43.56 0 66 0 C66 0.33 66 0.66 66 1 C44.55 1 23.1 1 1 1 C1 10.57 1 20.14 1 30 C5.24746094 29.98839844 9.49492188 29.97679688 13.87109375 29.96484375 C17.24907146 29.95841682 20.62704744 29.95299259 24.00502777 29.94824982 C27.57571125 29.9429601 31.14637115 29.93588661 34.71704102 29.92456055 C38.81006097 29.91165824 42.9030558 29.90677094 46.99609375 29.90234375 C48.92418129 29.89460182 48.92418129 29.89460182 50.89122009 29.88670349 C52.66294334 29.88659019 52.66294334 29.88659019 54.47045898 29.88647461 C56.03932106 29.88314369 56.03932106 29.88314369 57.63987732 29.87974548 C60 30 60 30 61 31 C61.10012401 33.20650656 61.1308118 35.41622386 61.1328125 37.625 C61.13376923 38.28709473 61.13472595 38.94918945 61.13571167 39.63134766 C61.13639326 41.03352961 61.13454042 42.4357147 61.13037109 43.83789062 C61.12502246 45.99095713 61.1303167 48.14381502 61.13671875 50.296875 C61.13605796 51.65625046 61.13477679 53.0156258 61.1328125 54.375 C61.13168457 55.62023437 61.13055664 56.86546875 61.12939453 58.1484375 C61 61 61 61 60 62 C58.25674841 62.11792081 56.50881412 62.16733529 54.76171875 62.18945312 C53.64385986 62.20617065 52.52600098 62.22288818 51.37426758 62.2401123 C50.15763428 62.25368774 48.94100098 62.26726318 47.6875 62.28125 C46.44830811 62.29965942 45.20911621 62.31806885 43.93237305 62.33703613 C39.27826823 62.40604335 34.62407938 62.46631345 29.96984863 62.52606201 C25.41731227 62.58497008 20.86491689 62.65111934 16.3125 62.71875 C15.0958667 62.73232544 13.8792334 62.74590088 12.62573242 62.7598877 C11.50787354 62.77660522 10.39001465 62.79332275 9.23828125 62.81054688 C8.24868408 62.82307495 7.25908691 62.83560303 6.23950195 62.84851074 C4.02936613 62.75137655 4.02936613 62.75137655 3 64 C2.84141158 66.14386657 2.74870702 68.29266838 2.68359375 70.44140625 C2.64169922 71.74658203 2.59980469 73.05175781 2.55664062 74.39648438 C2.51682392 75.7851533 2.47711175 77.17382522 2.4375 78.5625 C2.39432011 79.95509183 2.350706 81.34767028 2.30664062 82.74023438 C2.20014124 86.16004801 2.09813077 89.57993763 2 93 C2.81210434 92.99777939 3.62420868 92.99555878 4.46092224 92.99327087 C12.09828948 92.97326929 19.7356441 92.95802655 27.37303066 92.94818783 C31.29988658 92.94295969 35.22672094 92.93586331 39.15356445 92.92456055 C42.94014257 92.9137292 46.7266999 92.90772264 50.51329231 92.90512276 C51.96104319 92.90326895 53.40879288 92.89964919 54.85653496 92.89426994 C56.87757135 92.88705633 58.89862848 92.88659192 60.91967773 92.88647461 C62.64842384 92.88314369 62.64842384 92.88314369 64.41209412 92.87974548 C67 93 67 93 68 94 C68.08783542 96.21855264 68.10694609 98.43988496 68.09765625 100.66015625 C68.0962413 101.32462265 68.09482635 101.98908905 68.09336853 102.6736908 C68.08775518 104.80333899 68.07520054 106.93288339 68.0625 109.0625 C68.05748671 110.50325369 68.05292351 111.94400903 68.04882812 113.38476562 C68.03778145 116.92321102 68.02050792 120.46159539 68 124 C67.67 124 67.34 124 67 124 C67 114.43 67 104.86 67 95 C44.89 95 22.78 95 0 95 C0 83.45 0 71.9 0 60 C19.47 60 38.94 60 59 60 C59 50.43 59 40.86 59 31 C39.53 31 20.06 31 0 31 C0 20.77 0 10.54 0 0 Z " fill="#31759B" transform="translate(61,84)"/>
<path d="M0 0 C1.29349365 0.00523682 2.5869873 0.01047363 3.91967773 0.01586914 C4.9496714 0.01799156 4.9496714 0.01799156 6.00047302 0.02015686 C8.20144949 0.0257706 10.40232557 0.03832532 12.60327148 0.05102539 C14.09220231 0.05603863 15.58113473 0.06060184 17.07006836 0.06469727 C20.72700223 0.07574446 24.38387707 0.09301826 28.04077148 0.11352539 C28.04077148 0.44352539 28.04077148 0.77352539 28.04077148 1.11352539 C18.14077148 1.11352539 8.24077148 1.11352539 -1.95922852 1.11352539 C-1.95922852 19.59352539 -1.95922852 38.07352539 -1.95922852 57.11352539 C-4.26922852 55.46352539 -6.57922852 53.81352539 -8.95922852 52.11352539 C-7.96922852 51.61852539 -7.96922852 51.61852539 -6.95922852 51.11352539 C-6.29922852 51.44352539 -5.63922852 51.77352539 -4.95922852 52.11352539 C-4.94892105 51.47681412 -4.93861359 50.84010284 -4.92799377 50.18409729 C-4.82016521 43.58225741 -4.70554891 36.98056061 -4.58691406 30.37890625 C-4.54348908 27.9121397 -4.5018198 25.44534162 -4.46191406 22.97851562 C-4.40439406 19.44139073 -4.34064777 15.90442573 -4.27563477 12.36743164 C-4.25056602 10.70182945 -4.25056602 10.70182945 -4.22499084 9.00257874 C-4.20504562 7.98159592 -4.1851004 6.9606131 -4.16455078 5.90869141 C-4.1490065 5.0049025 -4.13346222 4.10111359 -4.1174469 3.16993713 C-3.86401697 -0.12396765 -3.37171998 0.12934987 0 0 Z " fill="#1B6A97" transform="translate(231.959228515625,51.886474609375)"/>
<path d="M0 0 C0.66 0.33 1.32 0.66 2 1 C0.63580527 4.13561178 -0.85482576 5.91445301 -3.4375 8.125 C-9.16487289 13.74498465 -10.12926309 20.33022536 -10.375 28.125 C-10.18238398 35.27013731 -8.15681261 41.11118213 -4 47 C-3.01 47.66 -2.02 48.32 -1 49 C-1.33 49.66 -1.66 50.32 -2 51 C-4.04119788 49.38405168 -6.04072937 47.7143618 -8 46 C-8 45.34 -8 44.68 -8 44 C-8.66 44 -9.32 44 -10 44 C-14.51529558 34.74184752 -14.31352152 24.40560454 -11.5625 14.5625 C-9.211805 8.31392528 -5.02442605 4.25143743 0 0 Z " fill="#3F7EA1" transform="translate(184,126)"/>
<path d="M0 0 C4.06824569 3.48706774 6.08820688 7.80185334 6.50390625 13.1015625 C6.54801893 14.60885613 6.56665365 16.11706673 6.5625 17.625 C6.5629834 18.41318115 6.5634668 19.2013623 6.56396484 20.01342773 C6.35634888 27.34495963 4.34068406 32.98376691 0 39 C-0.99 39.495 -0.99 39.495 -2 40 C-1.37701935 36.97690441 -0.68925883 35.51976364 1.0625 32.8125 C3.3302839 28.42591071 3.41200652 24.27553888 3.4375 19.4375 C3.4521228 18.35722534 3.4521228 18.35722534 3.46704102 17.25512695 C3.38651006 12.11701655 2.12597998 8.65234347 0 4 C0 2.68 0 1.36 0 0 Z " fill="#3E7EA0" transform="translate(224,134)"/>
<path d="M0 0 C1.3515625 2.171875 1.3515625 2.171875 2 4 C-0.71754727 3.16383161 -3.35373358 2.34063626 -5.875 1.01171875 C-12.44982751 -2.41267058 -18.2599676 -2.47889191 -25.5625 -2.25 C-27.21862305 -2.22292969 -27.21862305 -2.22292969 -28.90820312 -2.1953125 C-31.60639981 -2.14859048 -34.30272035 -2.0831014 -37 -2 C-26.96120712 -8.69252858 -9.81873089 -5.88504375 0 0 Z " fill="#548CAB" transform="translate(221,99)"/>
<path d="M0 0 C5.75 0.75 5.75 0.75 8 3 C14.62968418 5.13316227 21.07296961 5.416929 28 5.625 C29.59134766 5.68300781 29.59134766 5.68300781 31.21484375 5.7421875 C33.80973067 5.83569694 36.40462449 5.92144902 39 6 C39 6.33 39 6.66 39 7 C26.0674807 10.14437724 11.56948293 8.56646328 0 2 C0 1.34 0 0.68 0 0 Z " fill="#297098" transform="translate(170,205)"/>
<path d="M0 0 C0.33 0 0.66 0 1 0 C1 18.15 1 36.3 1 55 C-1.31 53.35 -3.62 51.7 -6 50 C-5.01 49.505 -5.01 49.505 -4 49 C-3.34 49.33 -2.68 49.66 -2 50 C-1.15930445 47.05304966 -0.85353232 44.38368081 -0.79467773 41.32324219 C-0.77473251 40.40258972 -0.75478729 39.48193726 -0.73423767 38.53338623 C-0.70916893 37.05506317 -0.70916893 37.05506317 -0.68359375 35.546875 C-0.66281265 34.53151672 -0.64203156 33.51615845 -0.62062073 32.47003174 C-0.55529403 29.23008927 -0.49631863 25.99006652 -0.4375 22.75 C-0.39429874 20.55207507 -0.35068393 18.35415822 -0.30664062 16.15625 C-0.19962993 10.77091794 -0.09783227 5.3855062 0 0 Z " fill="#3F7B9B" transform="translate(229,54)"/>
<path d="M0 0 C0.99435744 3.18930941 0.96474353 5.63513027 0.5625 8.9375 C-0.09634491 15.27781272 -0.33117068 21.62983456 0 28 C0.33 28.33 0.66 28.66 1 29 C1.04092937 31.33297433 1.04241723 33.66705225 1 36 C-3.55967396 31.44032604 -2.18391945 24.14748654 -2.1875 18.125 C-2.19974609 17.04863281 -2.21199219 15.97226563 -2.22460938 14.86328125 C-2.23447749 9.52792066 -2.19275727 4.97487222 0 0 Z " fill="#BBD8E4" transform="translate(144,135)"/>
<path d="M0 0 C2.97 0.495 2.97 0.495 6 1 C6 1.66 6 2.32 6 3 C12.27 3.33 18.54 3.66 25 4 C22.38423537 6.61576463 21.14600117 6.32801545 17.5 6.375 C11.43511128 6.28720909 6.28058161 5.03329007 1 2 C0.67 1.34 0.34 0.68 0 0 Z " fill="#5D91AD" transform="translate(183,178)"/>
<path d="M0 0 C5.75 0.75 5.75 0.75 8 3 C9.96690374 3.67292501 9.96690374 3.67292501 12.125 4.125 C13.40375 4.41375 14.6825 4.7025 16 5 C16 5.33 16 5.66 16 6 C9.49686791 6.46450943 5.5825192 5.32575612 0 2 C0 1.34 0 0.68 0 0 Z " fill="#407EA1" transform="translate(170,205)"/>
<path d="M0 0 C0.66 0.33 1.32 0.66 2 1 C0.56974806 2.65213589 -0.86945545 4.29652589 -2.3125 5.9375 C-3.11300781 6.85402344 -3.91351563 7.77054687 -4.73828125 8.71484375 C-7 11 -7 11 -10 12 C-8.52278578 8.54798361 -6.56205999 6.35038064 -3.875 3.75 C-3.15054688 3.04359375 -2.42609375 2.3371875 -1.6796875 1.609375 C-1.12539062 1.07828125 -0.57109375 0.5471875 0 0 Z " fill="#D1E7EE" transform="translate(163,106)"/>
<path d="M0 0 C0.75 1.5625 0.75 1.5625 1 4 C-1.28819681 8.92842391 -3.47089828 11.85479047 -8 15 C-8.66 14.67 -9.32 14.34 -10 14 C-9.52949219 13.49210938 -9.05898437 12.98421875 -8.57421875 12.4609375 C-4.98265595 8.49014136 -2.0977575 4.93590001 0 0 Z " fill="#BEDAE4" transform="translate(228,164)"/>
<path d="M0 0 C0 0.33 0 0.66 0 1 C-1.08539063 1.13277344 -2.17078125 1.26554687 -3.2890625 1.40234375 C-4.73438322 1.58066254 -6.17969526 1.75905169 -7.625 1.9375 C-8.69427734 2.06801758 -8.69427734 2.06801758 -9.78515625 2.20117188 C-13.87591961 2.70782605 -17.93842635 3.2889043 -22 4 C-22 3.34 -22 2.68 -22 2 C-14.58569409 0.16282685 -7.62314474 -0.23576736 0 0 Z " fill="#266F9A" transform="translate(203,93)"/>
<path d="M0 0 C-1.23944276 0.86941494 -2.49207059 1.72005457 -3.75 2.5625 C-4.44609375 3.03816406 -5.1421875 3.51382813 -5.859375 4.00390625 C-8 5 -8 5 -10.265625 4.65234375 C-10.83796875 4.43707031 -11.4103125 4.22179687 -12 4 C-4 -1.33333333 -4 -1.33333333 0 0 Z " fill="#35779D" transform="translate(220,177)"/>
<path d="M0 0 C0.99 0 1.98 0 3 0 C4.03789581 1.64333504 5.03567924 3.31243867 6 5 C6.99 5.66 7.98 6.32 9 7 C8.67 7.66 8.34 8.32 8 9 C5.95880212 7.38405168 3.95927063 5.7143618 2 4 C2 3.34 2 2.68 2 2 C1.34 2 0.68 2 0 2 C0 1.34 0 0.68 0 0 Z " fill="#36779E" transform="translate(174,168)"/>
<path d="M0 0 C2.97 0.495 2.97 0.495 6 1 C6 1.66 6 2.32 6 3 C7.65 3.33 9.3 3.66 11 4 C9.4375 4.75 9.4375 4.75 7 5 C4.49713591 3.86915563 2.32992278 2.47860484 0 1 C0 0.67 0 0.34 0 0 Z " fill="#558BA9" transform="translate(183,178)"/>
<path d="M0 0 C-1.28913487 0.67154933 -2.58140204 1.33708859 -3.875 2 C-4.59429687 2.37125 -5.31359375 2.7425 -6.0546875 3.125 C-8 4 -8 4 -10 4 C-10 3.34 -10 2.68 -10 2 C-4.10714286 -1.34821429 -4.10714286 -1.34821429 0 0 Z " fill="#3B7B9F" transform="translate(179,98)"/>
<path d="M0 0 C0.66 0.33 1.32 0.66 2 1 C0.35 3.64 -1.3 6.28 -3 9 C-3.33 7.68 -3.66 6.36 -4 5 C-2.0625 2.25 -2.0625 2.25 0 0 Z " fill="#2E7399" transform="translate(152,115)"/>
<path d="M0 0 C0.99 0.33 1.98 0.66 3 1 C-0.465 3.97 -0.465 3.97 -4 7 C-3.04065919 3.16263678 -2.76390737 2.40339772 0 0 Z " fill="#36789C" transform="translate(158,108)"/>
<path d="M0 0 C0.66 0.33 1.32 0.66 2 1 C0.02579865 3.52259061 -0.96745642 3.9929808 -4.1875 4.6875 C-5.5796875 4.8421875 -5.5796875 4.8421875 -7 5 C-2.25 1.125 -2.25 1.125 0 0 Z " fill="#4D86A7" transform="translate(219,204)"/>
</svg>
